<?xml version="1.0"?>
<svg xmlns="http://www.w3.org/2000/svg" xmlns:xlink="http://www.w3.org/1999/xlink" xmlns:svgjs="http://svgjs.com/svgjs" version="1.1" width="512" height="512" x="0" y="0" viewBox="0 0 511.997 511.997" style="enable-background:new 0 0 512 512" xml:space="preserve" class=""><g>
<g xmlns="http://www.w3.org/2000/svg">
	<g>
		<rect x="283.463" y="471.577" width="89.817" height="39.919" fill="#ffffff" data-original="#000000" style="" class=""/>
	</g>
</g>
<g xmlns="http://www.w3.org/2000/svg">
	<g>
		<path d="M471.083,430.621v19.959h0c0,11.58-9.421,21-21,21h-19.959v39.919h19.959c33.592,0,60.919-27.328,60.919-60.919v-19.959    H471.083z" fill="#ffffff" data-original="#000000" style="" class=""/>
	</g>
</g>
<g xmlns="http://www.w3.org/2000/svg">
	<g>
		<rect x="137.809" y="0.497" width="89.817" height="39.919" fill="#ffffff" data-original="#000000" style="" class=""/>
	</g>
</g>
<g xmlns="http://www.w3.org/2000/svg">
	<g>
		<rect x="283.463" y="0.497" width="89.817" height="39.919" fill="#ffffff" data-original="#000000" style="" class=""/>
	</g>
</g>
<g xmlns="http://www.w3.org/2000/svg">
	<g>
		<path d="M60.962,0.497c-33.592,0-60.919,27.328-60.919,60.919v19.959h39.919V61.416c0-11.58,9.421-21,21-21h19.959V0.497H60.962z" fill="#ffffff" data-original="#000000" style="" class=""/>
	</g>
</g>
<g xmlns="http://www.w3.org/2000/svg">
	<g>
		<path d="M450.083,0.497h-19.959v39.919h19.959c11.58,0,21,9.421,21,21v19.959h39.919V61.416    C511.002,27.825,483.675,0.497,450.083,0.497z" fill="#ffffff" data-original="#000000" style="" class=""/>
	</g>
</g>
<g xmlns="http://www.w3.org/2000/svg">
	<g>
		<rect y="143.246" width="39.919" height="89.817" fill="#ffffff" data-original="#000000" style="" class=""/>
	</g>
</g>
<g xmlns="http://www.w3.org/2000/svg">
	<g>
		<rect x="472.078" y="288.909" width="39.919" height="89.817" fill="#ffffff" data-original="#000000" style="" class=""/>
	</g>
</g>
<g xmlns="http://www.w3.org/2000/svg">
	<g>
		<rect x="472.078" y="143.246" width="39.919" height="89.817" fill="#ffffff" data-original="#000000" style="" class=""/>
	</g>
</g>
<g xmlns="http://www.w3.org/2000/svg">
	<g>
		<path d="M264.504,103.332v39.918h77.981L210.862,280.771c-9.088-5.568-19.768-8.783-31.185-8.783H59.921    c-33.017,0-59.878,26.861-59.878,59.878v119.756c0,33.017,26.861,59.878,59.878,59.878h119.756    c33.017,0,59.878-26.861,59.878-59.878V331.866c0-6.941-1.201-13.603-3.382-19.808l133.118-139.083v75.061h39.919V103.332H264.504    z M199.636,451.621c0,11.006-8.954,19.959-19.959,19.959H59.921c-11.006,0-19.959-8.954-19.959-19.959V331.865    c0-11.006,8.954-19.959,19.959-19.959h119.756c11.006,0,19.959,8.954,19.959,19.959V451.621z" fill="#ffffff" data-original="#000000" style="" class=""/>
	</g>
</g>
<g xmlns="http://www.w3.org/2000/svg">
</g>
<g xmlns="http://www.w3.org/2000/svg">
</g>
<g xmlns="http://www.w3.org/2000/svg">
</g>
<g xmlns="http://www.w3.org/2000/svg">
</g>
<g xmlns="http://www.w3.org/2000/svg">
</g>
<g xmlns="http://www.w3.org/2000/svg">
</g>
<g xmlns="http://www.w3.org/2000/svg">
</g>
<g xmlns="http://www.w3.org/2000/svg">
</g>
<g xmlns="http://www.w3.org/2000/svg">
</g>
<g xmlns="http://www.w3.org/2000/svg">
</g>
<g xmlns="http://www.w3.org/2000/svg">
</g>
<g xmlns="http://www.w3.org/2000/svg">
</g>
<g xmlns="http://www.w3.org/2000/svg">
</g>
<g xmlns="http://www.w3.org/2000/svg">
</g>
<g xmlns="http://www.w3.org/2000/svg">
</g>
</g></svg>
