<svg height="512pt" viewBox="0 -1 512 512" width="512pt" xmlns="http://www.w3.org/2000/svg" xmlns:xlink="http://www.w3.org/1999/xlink"><linearGradient id="a" gradientUnits="userSpaceOnUse" x1="256.0001191218" x2="256.0001191218" y1=".0005981218" y2="510.3688541218"><stop offset="0" stop-color="#2af598"/><stop offset="1" stop-color="#009efd"/></linearGradient><path d="m512 377.925781-18.324219-14.203125c-2.359375-1.828125-13.378906-10.128906-28.789062-17.957031 2.859375-2.375 5.609375-4.960937 8.199219-7.792969 28.566406-31.207031 35.179687-81.507812 35.449218-83.636718l2.898438-23.027344-22.148438.582031c2.710938-5.417969 4.957032-11.234375 6.507813-17.4375 10.308593-41.234375-8.023438-89.085937-8.804688-91.101563l-8.359375-21.46875-20.046875 11.351563c-5.71875 3.238281-56.175781 32.875-66.832031 75.496094-6.746094 26.984375 2.007812 53.683593 10.0625 70.695312-2.742188 2.246094-5.339844 4.667969-7.746094 7.296875-12.109375 13.230469-18.464844 29.382813-21.71875 44.179688-8.980468 31.785156-30.585937 54.8125-64.261718 68.460937-20.910157 8.476563-40.671876 10.835938-49.0625 11.480469-1.085938-.058594-2.179688-.09375-3.277344-.09375-1.046875 0-2.085938.03125-3.121094.082031-19.417969-1.511719-95.390625-11.925781-113.632812-82.332031l-.738282.191406c-3.351562-14.152344-9.582031-29.332031-20.9375-41.882812-2.171875-2.402344-4.503906-4.632813-6.960937-6.714844 8.140625-16.972656 17.214843-44.023438 10.378906-71.363281-10.652344-42.621094-61.113281-72.257813-66.832031-75.496094l-20.042969-11.351563-8.359375 21.46875c-.785156 2.015626-19.113281 49.867188-8.804688 91.101563 1.550782 6.203125 3.796876 12.019531 6.507813 17.441406l-22.359375-.59375 2.863281 23.007813c.261719 2.125 6.796875 52.382812 35.015625 83.574218 2.613282 2.894532 5.390625 5.527344 8.277344 7.941407-15.351562 7.8125-26.320312 16.074219-28.675781 17.898437l-18.324219 14.203125 16.785156 15.988281c1.550782 1.476563 38.269532 36.054688 79.828125 42.632813-7.65625 13.238281-11.957031 24.304687-12.914062 26.875l-8.101563 21.722656 22.691406 4.753907c1.167969.246093 17.035157 3.484374 37.574219 3.484374 16.515625 0 36.054688-2.097656 53.386719-9.527343 4.574219-1.960938 8.851562-4.296875 12.839844-6.90625 9.769531 19.78125 30.144531 33.421875 53.65625 33.421875 23.609375 0 44.066406-13.757813 53.785156-33.675782 4.097656 2.707032 8.496094 5.136719 13.21875 7.160157 17.335938 7.433593 36.871094 9.527343 53.390625 9.527343 20.53125 0 36.402344-3.238281 37.570313-3.484374l22.691406-4.753907-8.101563-21.722656c-.957031-2.570313-5.257812-13.636719-12.914062-26.875 41.558593-6.578125 78.277343-41.15625 79.828125-42.632813zm-424.253906-84.367187c8.554687 9.453125 12.253906 23.300781 13.640625 35.199218-11.011719-2.648437-24.175781-7.761718-33.097657-17.621093-8.695312-9.613281-14.820312-23.359375-18.859374-35.777344 14.171874 3.160156 29.785156 8.769531 38.316406 18.199219zm335.730468.085937c2.125-2.320312 4.695313-4.40625 7.578126-6.285156l6.785156-3.636719c.183594-.101562.785156-.425781 1.722656-.972656 7.28125-3.308594 15.46875-5.714844 23.222656-7.410156-3.898437 11.984375-9.96875 25.722656-19.109375 35.710937-9.179687 10.027344-22.753906 15.164063-34.015625 17.792969.257813-2.316406.613282-4.734375 1.082032-7.199219.296874-1.042969.589843-2.089843.863281-3.148437l-.1875-.046875c2.023437-8.75 5.648437-17.800781 12.058593-24.804688zm6.957032-95.246093c3.152344-12.617188 14.855468-25.320313 26.285156-35.023438 2.417969 13.113281 3.613281 28.519531.390625 41.410156-3.332031 13.332032-12.996094 24.355469-21.757813 32.007813-4.601562-11.355469-8.09375-25.695313-4.917968-38.394531zm-374.667969-35.023438c11.433594 9.707031 23.132813 22.410156 26.285156 35.023438 3.175781 12.699218-.316406 27.042968-4.90625 38.390624-8.769531-7.660156-18.4375-18.691406-21.769531-32.003906-3.222656-12.890625-2.027344-28.300781.390625-41.410156zm51.464844 207.480469c12.675781 1.910156 24.375 10.300781 33.050781 18.671875-.933594.527344-1.855469 1.070312-2.761719 1.636718-9.875 4.394532-22.175781 7.898438-34.28125 6.074219-13.003906-1.957031-26.648437-8.84375-37.773437-16 13.125-6.632812 29.003906-12.300781 41.765625-10.382812zm66.308593 76.351562c-12.101562 5.1875-27.335937 6.519531-40.578124 6.285157 6.359374-10.441407 14.667968-21.230469 24.121093-27.53125 2.832031-1.34375 5.488281-2.710938 7.929688-4.054688 11.507812-4.203125 25.097656-3.148438 36.296875-.683594-6.125 9.679688-15.347656 20.660156-27.769532 25.984375zm82.207032 23.289063c-10.996094 0-19.9375-8.941406-19.9375-19.9375 0-10.101563 7.558594-18.449219 17.3125-19.742188.894531.050782 1.625.082032 2.195312.101563v.039062c.089844-.003906.328125-.007812.683594-.015625.355469.007813.59375.011719.683594.015625v-.039062c.484375-.015625 1.089844-.042969 1.8125-.082031 9.691406 1.347656 17.183594 9.667968 17.183594 19.722656 0 10.992187-8.941407 19.9375-19.933594 19.9375zm82.714844-23.289063c-12.433594-5.328125-21.660157-16.324219-27.789063-26.007812 10.765625-2.4375 24.359375-3.691407 36.304687.703125 2.449219 1.347656 5.109376 2.714844 7.945313 4.0625 9.46875 6.308594 17.785156 17.121094 24.144531 27.570312-13.191406.234375-28.417968-1.101562-40.605468-6.328125zm70.300781-49.96875c-12.101563 1.820313-24.40625-1.679687-34.273438-6.070312-.910156-.566407-1.832031-1.113281-2.765625-1.636719 8.679688-8.382812 20.375-16.765625 33.046875-18.675781 12.847657-1.933594 28.699219 3.714843 41.84375 10.386719-11.089843 7.144531-24.734375 14.019531-37.851562 15.996093zm-171.957031-90.21875v-104.554687c-14.460938 9.980468-31.976563 15.839844-50.835938 15.839844v-39.875c27.480469 0 49.839844-22.359376 49.839844-49.839844h39.871094v.171875h.996093v178.257812zm-117.664063-199.320312-31.746094-24.125c19.296875-25.394531 44.492188-46.425781 72.863281-60.816407 29.769532-15.101562 61.894532-22.757812 95.488282-22.757812 33.402344 0 66.671875 7.996094 96.210937 23.128906 28.5625 14.625 53.84375 35.976563 73.113281 61.734375l-31.929687 23.882813c-32.738281-43.769532-82.816406-68.871094-137.394531-68.871094-54.0625 0-103.851563 24.71875-136.605469 67.824219zm0 0" fill="url(#a)"/></svg>