<svg height="512pt" viewBox="0 -1 512 512" width="512pt" xmlns="http://www.w3.org/2000/svg" xmlns:xlink="http://www.w3.org/1999/xlink"><linearGradient id="a" gradientUnits="userSpaceOnUse" x1="255.9997896137" x2="255.9997896137" y1=".0002986137" y2="510.3665066137"><stop offset="0" stop-color="#2af598"/><stop offset="1" stop-color="#009efd"/></linearGradient><path d="m512 377.925781-18.324219-14.207031c-2.359375-1.828125-13.378906-10.125-28.792969-17.953125 2.859376-2.375 5.609376-4.960937 8.203126-7.796875 28.5625-31.203125 35.179687-81.507812 35.449218-83.632812l2.902344-23.027344-22.152344.582031c2.710938-5.421875 4.957032-11.238281 6.503906-17.4375 10.308594-41.234375-8.019531-89.089844-8.804687-91.105469l-8.359375-21.464844-20.042969 11.351563c-5.71875 3.238281-56.175781 32.875-66.832031 75.492187-6.746094 26.984376 2.007812 53.6875 10.0625 70.695313-2.742188 2.246094-5.339844 4.671875-7.746094 7.296875-12.109375 13.230469-18.464844 29.378906-21.714844 44.175781-8.980468 31.785157-30.585937 54.816407-64.265624 68.46875-20.914063 8.472657-40.675782 10.832031-49.066407 11.480469-1.085937-.058594-2.175781-.09375-3.277343-.09375-1.003907 0-2.003907.027344-2.996094.074219-8.523438-.671875-28.117188-3.066407-48.832032-11.460938-34.523437-13.992187-56.367187-37.835937-64.925781-70.867187l-.738281.191406c-3.347656-14.152344-9.582031-29.328125-20.9375-41.878906-2.171875-2.402344-4.503906-4.636719-6.957031-6.71875 8.140625-16.972656 17.214843-44.023438 10.378906-71.359375-10.65625-42.621094-61.113281-72.257813-66.832031-75.496094l-20.042969-11.351563-8.359375 21.464844c-.785156 2.019532-19.113281 49.871094-8.804688 91.105469 1.550782 6.203125 3.792969 12.019531 6.507813 17.441406l-22.363281-.59375 2.863281 23.007813c.265625 2.125 6.796875 52.382812 35.015625 83.574218 2.617188 2.890626 5.390625 5.527344 8.277344 7.941407-15.347656 7.8125-26.320313 16.074219-28.671875 17.894531l-18.324219 14.207031 16.789062 15.988281c1.550782 1.476563 38.269532 36.054688 79.824219 42.632813-7.65625 13.238281-11.957031 24.300781-12.914062 26.871094l-8.097657 21.722656 22.6875 4.757813c1.167969.242187 17.035157 3.480468 37.570313 3.480468 16.515625 0 36.054687-2.09375 53.390625-9.527344 4.574219-1.960937 8.851562-4.296874 12.839844-6.90625 9.769531 19.78125 30.144531 33.421876 53.65625 33.421876 23.609375 0 44.066406-13.757813 53.78125-33.675782 4.101562 2.710938 8.5 5.136719 13.222656 7.160156 17.335938 7.433594 36.871094 9.527344 53.390625 9.527344 20.53125 0 36.402344-3.238281 37.570313-3.480468l22.691406-4.757813-8.101563-21.722656c-.957031-2.570313-5.257812-13.632813-12.914062-26.871094 41.554687-6.578125 78.273437-41.15625 79.824219-42.632813zm-424.253906-84.371093c8.550781 9.457031 12.253906 23.304687 13.636718 35.199218-11.007812-2.648437-24.175781-7.761718-33.09375-17.621094-8.695312-9.613281-14.820312-23.359374-18.859374-35.777343 14.167968 3.164062 29.789062 8.773437 38.316406 18.199219zm335.730468.089843c2.121094-2.320312 4.695313-4.40625 7.574219-6.289062l6.785157-3.636719c.1875-.097656.789062-.425781 1.722656-.96875 7.28125-3.308594 15.472656-5.71875 23.222656-7.410156-3.894531 11.980468-9.964844 25.722656-19.109375 35.707031-9.179687 10.03125-22.75 15.164063-34.011719 17.796875.257813-2.316406.613282-4.738281 1.082032-7.203125.292968-1.042969.589843-2.089844.863281-3.144531l-.191407-.046875c2.023438-8.753907 5.652344-17.800781 12.0625-24.804688zm6.957032-95.246093c3.15625-12.628907 14.882812-25.351563 26.324218-35.058594 2.417969 13.070312 3.597657 28.457031.351563 41.445312-3.335937 13.332032-13 24.355469-21.761719 32.011719-4.597656-11.359375-8.089844-25.703125-4.914062-38.398437zm-374.667969-35.023438c11.433594 9.707031 23.132813 22.410156 26.285156 35.023438 3.175781 12.703124-.320312 27.046874-4.910156 38.398437-8.769531-7.660156-18.433594-18.683594-21.765625-32.011719-3.222656-12.890625-2.027344-28.300781.390625-41.410156zm51.464844 207.480469c12.679687 1.910156 24.375 10.300781 33.050781 18.671875-.914062.511718-1.816406 1.046875-2.707031 1.597656-9.886719 4.410156-22.222657 7.933594-34.335938 6.113281-13.019531-1.960937-26.675781-8.859375-37.804687-16.023437 13.140625-6.664063 28.960937-12.296875 41.796875-10.359375zm66.308593 76.351562c-12.101562 5.1875-27.363281 6.515625-40.574218 6.28125 6.359375-10.445312 14.667968-21.238281 24.128906-27.535156 2.824219-1.339844 5.476562-2.703125 7.917969-4.046875 11.5-4.203125 25.089843-3.148438 36.292969-.6875-6.132813 9.679688-15.355469 20.667969-27.765626 25.988281zm82.207032 23.285157c-10.996094 0-19.9375-8.941407-19.9375-19.933594 0-10.105469 7.558594-18.453125 17.316406-19.746094.890625.050781 1.621094.082031 2.191406.101562v.039063c.085938 0 .328125-.003906.683594-.015625.355469.011719.59375.015625.683594.015625v-.039063c.484375-.015624 1.089844-.042968 1.808594-.082031 9.695312 1.347657 17.1875 9.667969 17.1875 19.726563 0 10.992187-8.941407 19.933594-19.933594 19.933594zm82.710937-23.285157c-12.421875-5.328125-21.644531-16.308593-27.769531-25.984375 11.207031-2.464844 24.792969-3.519531 36.292969.679688 2.445312 1.347656 5.105469 2.714844 7.941406 4.0625 9.457031 6.300781 17.761719 17.085937 24.117187 27.523437-13.238281.230469-28.480468-1.097656-40.582031-6.28125zm70.300781-49.96875c-12.101562 1.824219-24.40625-1.683593-34.273437-6.078125-.910156-.558594-1.832031-1.109375-2.761719-1.632812 8.679688-8.378906 20.371094-16.761719 33.046875-18.671875 12.847657-1.9375 28.699219 3.710937 41.84375 10.382812-11.089843 7.144531-24.738281 14.023438-37.855469 16zm-289.617187-289.542969-31.746094-24.121093c19.296875-25.394531 44.492188-46.425781 72.863281-60.816407 29.765626-15.101562 61.894532-22.757812 95.488282-22.757812 33.398437 0 66.667968 7.996094 96.210937 23.128906 28.5625 14.625 53.84375 35.976563 73.109375 61.734375l-31.929687 23.882813c-32.734375-43.769532-82.8125-68.871094-137.390625-68.871094-54.0625-.003906-103.851563 24.71875-136.605469 67.820312zm150.703125 148.554688c-3.222656 3.742188-6.4375 7.398438-9.558594 10.894531h52.277344v39.875h-115.632812v-30.582031l5.683593-5.8125c.167969-.171875 17.117188-17.53125 34.550781-37.546875 28.769532-33.023437 34.4375-45.046875 35.488282-47.914063-.574219-9.308593-8.101563-16.703124-17.273438-16.703124h-57.449218v-39.871094h57.449218c31.53125 0 57.183594 25.894531 57.183594 57.722656 0 9.871094-3.300781 24.226562-42.71875 69.9375zm0 0" fill="url(#a)"/></svg>