<svg height="512pt" viewBox="0 -1 512 512" width="512pt" xmlns="http://www.w3.org/2000/svg" xmlns:xlink="http://www.w3.org/1999/xlink"><linearGradient id="a" gradientUnits="userSpaceOnUse" x1="255.9998048468" x2="255.9998048468" y1="-.0000994721" y2="510.3670328468"><stop offset="0" stop-color="#2af598"/><stop offset="1" stop-color="#009efd"/></linearGradient><path d="m512 377.925781-18.324219-14.203125c-2.359375-1.832031-13.378906-10.128906-28.792969-17.957031 2.859376-2.375 5.609376-4.964844 8.203126-7.792969 28.5625-31.207031 35.179687-81.507812 35.449218-83.636718l2.898438-23.027344-22.148438.582031c2.710938-5.421875 4.957032-11.238281 6.507813-17.4375 10.308593-41.234375-8.019531-89.085937-8.804688-91.105469l-8.359375-21.464844-20.046875 11.351563c-5.71875 3.238281-56.175781 32.875-66.832031 75.492187-6.742188 26.984376 2.007812 53.6875 10.0625 70.695313-2.742188 2.246094-5.339844 4.671875-7.746094 7.296875-12.109375 13.230469-18.464844 29.382812-21.714844 44.183594-8.984374 31.78125-30.589843 54.8125-64.265624 68.460937-20.910157 8.472657-40.671876 10.832031-49.0625 11.480469-1.085938-.058594-2.179688-.09375-3.277344-.09375-1.003906 0-2.003906.027344-2.996094.074219-8.523438-.671875-28.117188-3.066407-48.832031-11.460938-34.523438-13.992187-56.367188-37.835937-64.921875-70.867187l-.742188.191406c-3.347656-14.152344-9.582031-29.332031-20.9375-41.882812-2.171875-2.398438-4.503906-4.632813-6.957031-6.714844 8.136719-16.972656 17.210937-44.023438 10.378906-71.363282-10.65625-42.621093-61.113281-72.253906-66.832031-75.492187l-20.046875-11.351563-8.355469 21.464844c-.785156 2.015625-19.113281 49.867188-8.804687 91.105469 1.550781 6.203125 3.792969 12.019531 6.507812 17.441406l-22.363281-.59375 2.863281 23.007813c.265625 2.121094 6.796875 52.382812 35.015625 83.574218 2.613282 2.890626 5.390625 5.527344 8.277344 7.941407-15.347656 7.8125-26.320312 16.070312-28.675781 17.894531l-18.324219 14.207031 16.789062 15.988281c1.550782 1.476563 38.265626 36.054688 79.824219 42.632813-7.65625 13.238281-11.957031 24.304687-12.914062 26.871094l-8.097657 21.722656 22.6875 4.757813c1.167969.242187 17.035157 3.480468 37.574219 3.480468 16.515625 0 36.054688-2.09375 53.390625-9.527344 4.574219-1.960937 8.847656-4.296874 12.835938-6.902343 9.769531 19.777343 30.144531 33.417969 53.65625 33.417969 23.613281 0 44.066406-13.757813 53.785156-33.671876 4.097656 2.707032 8.5 5.132813 13.21875 7.15625 17.339844 7.433594 36.871094 9.527344 53.390625 9.527344 20.535156 0 36.402344-3.238281 37.570313-3.480468l22.691406-4.757813-8.097656-21.722656c-.957032-2.566407-5.257813-13.632813-12.914063-26.871094 41.554687-6.578125 78.273437-41.15625 79.824219-42.632813zm-424.253906-84.371093c8.554687 9.453124 12.253906 23.304687 13.636718 35.203124-11.007812-2.648437-24.171874-7.765624-33.09375-17.625-8.683593-9.597656-14.800781-23.3125-18.84375-35.71875 14.207032 3.183594 29.839844 8.789063 38.300782 18.140626zm335.730468.085937c2.125-2.316406 4.695313-4.402344 7.570313-6.28125l6.792969-3.640625c.1875-.097656.789062-.425781 1.726562-.972656 7.277344-3.308594 15.46875-5.714844 23.21875-7.40625-3.898437 11.980468-9.96875 25.722656-19.109375 35.707031-9.179687 10.03125-22.753906 15.167969-34.015625 17.796875.257813-2.316406.613282-4.734375 1.082032-7.199219.292968-1.046875.589843-2.089843.863281-3.148437l-.1875-.046875c2.023437-8.753907 5.648437-17.800781 12.058593-24.808594zm6.957032-95.242187c3.152344-12.617188 14.855468-25.320313 26.285156-35.023438 2.417969 13.113281 3.613281 28.519531.390625 41.40625-3.332031 13.335938-13 24.359375-21.761719 32.011719-4.597656-11.355469-8.089844-25.699219-4.914062-38.394531zm-374.667969-35.023438c11.433594 9.703125 23.132813 22.40625 26.285156 35.023438 3.175781 12.703124-.320312 27.046874-4.910156 38.394531-8.769531-7.65625-18.433594-18.679688-21.765625-32.011719-3.222656-12.886719-2.027344-28.296875.390625-41.40625zm51.464844 207.480469c12.679687 1.910156 24.375 10.300781 33.050781 18.671875-.929688.523437-1.847656 1.070312-2.753906 1.628906-9.875 4.398438-22.179688 7.902344-34.285156 6.082031-13.019532-1.960937-26.679688-8.859375-37.808594-16.023437 13.140625-6.664063 28.964844-12.292969 41.796875-10.359375zm66.308593 76.351562c-12.097656 5.1875-27.339843 6.519531-40.578124 6.28125 6.363281-10.441406 14.671874-21.234375 24.128906-27.53125 2.828125-1.34375 5.480468-2.707031 7.917968-4.050781 11.507813-4.207031 25.101563-3.148438 36.304688-.6875-6.128906 9.683594-15.351562 20.664062-27.773438 25.988281zm82.207032 23.289063c-10.992188 0-19.9375-8.945313-19.9375-19.9375 0-10.101563 7.558594-18.453125 17.316406-19.742188.890625.046875 1.621094.078125 2.191406.101563v.035156c.089844 0 .328125-.003906.683594-.015625.355469.011719.59375.015625.683594.015625v-.035156c.484375-.019531 1.089844-.046875 1.808594-.082031 9.695312 1.34375 17.1875 9.664062 17.1875 19.722656 0 10.992187-8.941407 19.9375-19.933594 19.9375zm82.714844-23.289063c-12.433594-5.332031-21.660157-16.328125-27.785157-26.007812 10.761719-2.4375 24.355469-3.691407 36.300781.699219 2.449219 1.347656 5.109376 2.71875 7.945313 4.0625 9.46875 6.308593 17.785156 17.121093 24.144531 27.574218-13.191406.230469-28.417968-1.105468-40.605468-6.328125zm70.300781-49.96875c-12.109375 1.824219-24.410157-1.683593-34.277344-6.074219-.910156-.5625-1.828125-1.109374-2.761719-1.636718 8.679688-8.378906 20.371094-16.761719 33.046875-18.671875 12.835938-1.9375 28.660157 3.695312 41.796875 10.359375-11.128906 7.167968-24.789062 14.0625-37.804687 16.023437zm-289.621094-289.539062-31.746094-24.125c19.296875-25.394531 44.492188-46.425781 72.863281-60.816407 29.765626-15.101562 61.894532-22.757812 95.488282-22.757812 33.398437 0 66.667968 7.996094 96.210937 23.128906 28.5625 14.625 53.84375 35.972656 73.109375 61.734375l-31.925781 23.878907c-32.738281-43.765626-82.816406-68.871094-137.394531-68.871094-54.0625 0-103.851563 24.722656-136.605469 67.828125zm197.410156 50.167969-40.691406 39.992187c1.867187 1.203125 3.769531 2.46875 5.671875 3.789063 23.890625 16.507812 35.019531 31.648437 35.019531 47.644531 0 15.441406-6.238281 29.996093-17.558593 40.992187-11.113282 10.789063-25.667969 16.734375-40.984376 16.734375h-63.875v-39.875h63.875c9.527344 0 17.9375-7.65625 18.625-16.664062-1.039062-1.78125-5.410156-7.921875-20.8125-18.089844-10.824218-7.140625-20.773437-12.082031-20.875-12.132813l-11.097656-5.488281v-21.703125l25.039063-24.605468h-54.753907v-39.871094h122.417969zm0 0" fill="url(#a)"/></svg>