<svg id="fix_1" enable-background="new 0 0 24 24" height="512" viewBox="0 0 24 24" width="512" xmlns="http://www.w3.org/2000/svg"><path d="m4.941 24c-.101 0-.201-.03-.287-.091-.156-.109-.237-.299-.207-.488l1.29-8.067-5.593-5.688c-.132-.134-.177-.33-.118-.508s.212-.308.397-.337l7.679-1.199 3.415-7.333c.082-.176.257-.288.451-.289h.002c.193 0 .369.111.452.286l3.466 7.31 7.687 1.147c.185.027.339.156.399.334s.016.374-.115.509l-5.553 5.725 1.344 8.06c.031.188-.048.379-.204.489-.155.111-.36.123-.529.031l-6.879-3.769-6.853 3.814c-.077.043-.16.064-.244.064zm-3.402-14.341 5.088 5.173c.111.113.162.272.138.43l-1.167 7.301 6.194-3.448c.149-.083.332-.085.483-.002l6.219 3.407-1.217-7.294c-.026-.156.023-.316.135-.431l5.051-5.207-6.987-1.043c-.164-.024-.307-.129-.378-.28l-3.124-6.589-3.078 6.61c-.071.152-.211.258-.376.283z"/><path d="m12.5 17h-2c-.276 0-.5-.224-.5-.5s.224-.5.5-.5h2c.275 0 .5-.225.5-.5v-4c0-.275-.225-.5-.5-.5h-2c-.276 0-.5-.224-.5-.5s.224-.5.5-.5h2c.827 0 1.5.673 1.5 1.5v4c0 .827-.673 1.5-1.5 1.5z"/><path d="m13.5 14h-3c-.276 0-.5-.224-.5-.5s.224-.5.5-.5h3c.276 0 .5.224.5.5s-.224.5-.5.5z"/></svg>